<svg viewBox="0 0 35 35" fill="none" xmlns="http://www.w3.org/2000/svg">
<path class="call" d="M32.1916 22.9735C30.0488 22.9735 27.9448 22.6383 25.951 21.9795C24.974 21.6462 23.7729 21.9519 23.1767 22.5643L19.2413 25.5351C14.6773 23.0989 11.866 20.2885 9.46303 15.7588L12.3464 11.926C13.0956 11.1779 13.3643 10.085 13.0423 9.05962C12.3806 7.05533 12.0445 4.95232 12.0445 2.80857C12.0446 1.25991 10.7846 0 9.23608 0H2.80848C1.25991 0 0 1.25991 0 2.80848C0 20.5591 14.441 35 32.1916 35C33.7402 35 35.0001 33.7401 35.0001 32.1915V25.7819C35 24.2334 33.7401 22.9735 32.1916 22.9735Z" fill="#fff"/>
</svg>
